# xmcd
#
# Track frame offsets:
#	150
#	13270
#	33878
#	45698
#	60190
#	76103
#	88406
#	104499
#	116050
#	128471
#	145757
#	162432
#	179386
#	195681
#	211881
#	221448
#	238050
#
# Disc length: 3323 seconds
#
# Revision: 1
# Processed by: cddbd v1.5.2PL0 Copyright (c) Steve Scherf et al.
# Submitted via: audiograbber 1.83.01
#
DISCID=e70cf911
DTITLE=Shantidev Ghosh - Shantidev - Nabin Praner Bosante
DYEAR=1900
DGENRE=
TTITLE0=Shob Dibe Ke
TTITLE1=Baki Ami Rakhbo Na
TTITLE2=Aaj Ki Tahar Barota
TTITLE3=Pushpo Bone Pushpo Nahi
TTITLE4=Bol Golap More Bol
TTITLE5=Pushpo Phute Kon Kunjobone
TTITLE6=Nai Ba Ale Jodo Shomoy Nai
TTITLE7=Ore Aye Re Tobe
TTITLE8=Aaji E NiralaKunje Aamar
TTITLE9=Shey To Boshonte Phere Elo
TTITLE10=She Je Pashe Eshe Boshe Chihlo
TTITLE11=Tumi Cone Kanoner Phul
TTITLE12=Kobe Tumi Ashbe Bole
TTITLE13=Dhire Bondhu, Go Dhire Dhire
TTITLE14=Dhushar Jiboner Godhuli
TTITLE15=E Baala Dak Poreche Konkhane
TTITLE16=Aaj Khaala Bhangar Khaala
EXTD=
EXTT0=
EXTT1=
EXTT2=
EXTT3=
EXTT4=
EXTT5=
EXTT6=
EXTT7=
EXTT8=
EXTT9=
EXTT10=
EXTT11=
EXTT12=
EXTT13=
EXTT14=
EXTT15=
EXTT16=
PLAYORDER=
